REM MD5 8af6c7615fc55423c169110862178bb9
FILE "Aitakute... - Your Smiles in My Heart (Japan) (Disc 3).bin" BINARY
  TRACK 01 MODE2/2352
    FLAGS DCP
    INDEX 01 00:00:00
  TRACK 02 AUDIO
    FLAGS DCP
    INDEX 00 68:48:51
    INDEX 01 68:50:51
  TRACK 03 AUDIO
    FLAGS DCP
    INDEX 00 69:20:50
    INDEX 01 69:22:50
  TRACK 04 AUDIO
    FLAGS DCP
    INDEX 00 69:52:47
    INDEX 01 69:54:47
  TRACK 05 AUDIO
    FLAGS DCP
    INDEX 00 70:24:47
    INDEX 01 70:26:47
REM LEADOUT 70:56:45
